<svg xmlns="http://www.w3.org/2000/svg" xmlns:xlink="http://www.w3.org/1999/xlink" width="107.285" height="110.411" viewBox="0 0 107.285 110.411">
  <defs>
    <linearGradient id="linear-gradient" x1="13.21" y1="17.968" x2="13.21" y2="16.969" gradientUnits="objectBoundingBox">
      <stop offset="0" stop-color="#fff"/>
      <stop offset="1"/>
    </linearGradient>
    <linearGradient id="linear-gradient-2" x1="3.716" y1="3.003" x2="3.716" y2="2.003" gradientUnits="objectBoundingBox">
      <stop offset="0" stop-color="gray" stop-opacity="0.251"/>
      <stop offset="0.535" stop-color="gray" stop-opacity="0.122"/>
      <stop offset="1" stop-color="gray" stop-opacity="0.102"/>
    </linearGradient>
    <linearGradient id="linear-gradient-3" x1="1.976" y1="1.899" x2="1.976" y2="0.882" xlink:href="#linear-gradient-2"/>
  </defs>
  <g id="Group_167" data-name="Group 167" transform="translate(0 0)">
    <path id="Path_2527" data-name="Path 2527" d="M756.978,233.153a15.148,15.148,0,0,0,5.7-.785c3.673-1.07,7.484-2.769,9.388-6.087a17.558,17.558,0,0,0,1.479-3.911,35.752,35.752,0,0,0,1.7-8.267,17.919,17.919,0,0,0-1.95-8.944,1.927,1.927,0,0,0-.99-.923,1.17,1.17,0,0,0-1.489.528c-1.986,2.546-1.78,6.089-1.946,9.314a33.6,33.6,0,0,1-1.88,9.474,6.206,6.206,0,0,1-2.227,3.37,6.782,6.782,0,0,1-2.388.765,5.634,5.634,0,0,1-3.694-.146c-1.135-.609-1.885-2.187-3.2-2.45s-3.064,1.1-3.642,2.242C750.275,230.429,754.408,232.9,756.978,233.153Z" transform="translate(-677.593 -181.809)" fill="#ffd180"/>
    <g id="Group_163" data-name="Group 163" transform="translate(73.903 22.325)" opacity="0.1">
      <path id="Path_2528" data-name="Path 2528" d="M818.426,226.92a6.782,6.782,0,0,1-2.388.765,8.347,8.347,0,0,1-2.591.192,6.123,6.123,0,0,0,3.436.033,6.783,6.783,0,0,0,2.388-.765,6.2,6.2,0,0,0,2.227-3.37,33.6,33.6,0,0,0,1.88-9.474c.166-3.224-.04-6.768,1.946-9.314a1.37,1.37,0,0,1,.906-.618,1.727,1.727,0,0,0-.261-.134,1.17,1.17,0,0,0-1.489.528c-1.986,2.546-1.781,6.089-1.946,9.314a33.593,33.593,0,0,1-1.88,9.474A6.2,6.2,0,0,1,818.426,226.92Z" transform="translate(-805.162 -204.134)"/>
      <path id="Path_2529" data-name="Path 2529" d="M752.686,363.084a4.431,4.431,0,0,1,3.34-2.271,2.075,2.075,0,0,0-.542-.2c-1.3-.26-3.064,1.1-3.642,2.242-1.461,2.889,2.036,5.229,4.6,5.74C754.032,367.807,751.38,365.666,752.686,363.084Z" transform="translate(-751.496 -339.662)"/>
    </g>
    <rect id="Rectangle_1462" data-name="Rectangle 1462" width="24.904" height="7.209" transform="translate(63.211 23.038) rotate(26.478)" opacity="0.1"/>
    <rect id="Rectangle_1463" data-name="Rectangle 1463" width="24.904" height="6.554" transform="translate(63.211 23.038) rotate(26.478)" fill="#6c63ff"/>
    <circle id="Ellipse_37" data-name="Ellipse 37" cx="3.932" cy="3.932" r="3.932" transform="translate(73.548 22.797)" fill="#6c63ff"/>
    <path id="Path_2530" data-name="Path 2530" d="M556.928,43.427s6.808,1.846,9.287,4.626c0,0,4.016-3.409,5.874-2.484s-.916,8.044-.916,8.044l-2.458,11.14s1.278,26.911-16.037,32.2-29.721-16.35-25.712-24.4,16.051-22.916,16.051-22.916,10.5-11.771,12.355-12.392S556.928,43.427,556.928,43.427Z" transform="translate(-482.435 -37.203)" fill="#ffd180"/>
    <g id="Group_164" data-name="Group 164" transform="translate(46.432 0)" opacity="0.1">
      <path id="Path_2531" data-name="Path 2531" d="M833.336,256.942a54.709,54.709,0,0,0,1.432-13.729l-.388,1.759A54.687,54.687,0,0,1,833.336,256.942Z" transform="translate(-794.919 -215.662)" fill="#fff"/>
      <path id="Path_2532" data-name="Path 2532" d="M546.121,71.436c4.009-8.049,13.723-20.041,13.723-20.041S570.344,39.624,572.2,39s1.556,6.184,1.556,6.184,6.808,1.846,9.287,4.626c0,0,4.016-3.409,5.874-2.484.721.359.743,1.652.5,3.1.537-2.024.9-4.355-.114-4.858-1.857-.925-5.874,2.484-5.874,2.484-2.479-2.78-9.287-4.626-9.287-4.626s.3-6.806-1.556-6.184-12.355,12.392-12.355,12.392-9.714,11.992-13.723,20.041C546.147,70.4,546.006,71.666,546.121,71.436Z" transform="translate(-546.082 -37.203)" fill="#fff"/>
    </g>
    <circle id="Ellipse_38" data-name="Ellipse 38" cx="1.383" cy="1.383" r="1.383" transform="translate(79.786 21.69)" fill="#58555d"/>
    <circle id="Ellipse_39" data-name="Ellipse 39" cx="1.383" cy="1.383" r="1.383" transform="translate(65.545 14.597)" fill="#58555d"/>
    <ellipse id="Ellipse_40" data-name="Ellipse 40" cx="1.383" cy="2.075" rx="1.383" ry="2.075" transform="translate(71.267 21.232) rotate(-63.522)" fill="#58555d"/>
    <rect id="Rectangle_1464" data-name="Rectangle 1464" width="0.692" height="6.377" transform="translate(84.801 25.259) rotate(-76.039)" fill="#ffd180"/>
    <rect id="Rectangle_1465" data-name="Rectangle 1465" width="0.692" height="7.054" transform="translate(83.56 27.732) rotate(-74.788)" fill="#ffd180"/>
    <rect id="Rectangle_1466" data-name="Rectangle 1466" width="0.691" height="7.45" transform="matrix(0.746, -0.665, 0.665, 0.746, 57.687, 7.872)" fill="#ffd180"/>
    <rect id="Rectangle_1467" data-name="Rectangle 1467" width="0.692" height="9.098" transform="translate(54.347 10.095) rotate(-54.776)" fill="#ffd180"/>
    <path id="Path_2533" data-name="Path 2533" d="M604.386,298.991s-.358,11.507-6.408,9.489.832-9.371.832-9.371.712-2.847-.592-3.678" transform="translate(-542.45 -260.896)" opacity="0.1"/>
    <path id="Path_2534" data-name="Path 2534" d="M662.488,339.728s-9.573,6.394-4.66,10.459,7.511-5.666,7.511-5.666,2.039-2.111,3.434-1.444" transform="translate(-595.236 -299.269)" opacity="0.1"/>
    <path id="Path_2535" data-name="Path 2535" d="M601.571,295.149s-.358,11.507-6.408,9.489.832-9.371.832-9.371.712-2.847-.592-3.678" transform="translate(-540.012 -257.568)" fill="#ffd180"/>
    <path id="Path_2536" data-name="Path 2536" d="M666.878,338.248s-9.573,6.394-4.66,10.459,7.511-5.666,7.511-5.666,2.038-2.111,3.434-1.444" transform="translate(-599.04 -297.987)" fill="#ffd180"/>
    <rect id="Rectangle_1468" data-name="Rectangle 1468" width="2.041" height="0.109" transform="translate(53.393 46.054) rotate(-63.522)" fill="#58555d" opacity="0.5"/>
    <rect id="Rectangle_1469" data-name="Rectangle 1469" width="2.041" height="0.109" transform="translate(54.958 46.833) rotate(-63.522)" fill="#58555d" opacity="0.5"/>
    <rect id="Rectangle_1470" data-name="Rectangle 1470" width="2.857" height="0.109" transform="translate(54.035 46.558) rotate(-63.522)" fill="#58555d" opacity="0.5"/>
    <rect id="Rectangle_1471" data-name="Rectangle 1471" width="2.041" height="0.109" transform="translate(63.756 50.727) rotate(-63.522)" fill="#58555d" opacity="0.5"/>
    <rect id="Rectangle_1472" data-name="Rectangle 1472" width="2.041" height="0.109" transform="translate(65.321 51.507) rotate(-63.522)" fill="#58555d" opacity="0.5"/>
    <rect id="Rectangle_1473" data-name="Rectangle 1473" width="2.857" height="0.109" transform="translate(64.398 51.231) rotate(-63.522)" fill="#58555d" opacity="0.5"/>
    <path id="Path_2537" data-name="Path 2537" d="M632.834,174.546a31.64,31.64,0,0,1-4.631-2.822,29.846,29.846,0,0,1-7.166-7.487l.713-.893a32.821,32.821,0,0,0,7.211,7.443,35.224,35.224,0,0,0,21.791,6.157l.05,1.2A38.176,38.176,0,0,1,632.834,174.546Z" transform="translate(-564.58 -146.473)" opacity="0.1"/>
    <path id="Path_2538" data-name="Path 2538" d="M708.31,245.584l-.021-.063a.725.725,0,0,0,.517-1.032l.061-.028a.791.791,0,0,1-.556,1.123Z" transform="translate(-640.164 -216.743)" fill="#4d8af0"/>
    <path id="Path_2539" data-name="Path 2539" d="M708.31,245.584l-.021-.063a.725.725,0,0,0,.517-1.032l.061-.028a.791.791,0,0,1-.556,1.123Z" transform="translate(-640.164 -216.743)" opacity="0.1"/>
    <path id="Path_2540" data-name="Path 2540" d="M649.609,175.153A35.224,35.224,0,0,1,627.818,169a32.825,32.825,0,0,1-7.211-7.443l-1.027.627a33.356,33.356,0,0,0,7.48,7.753,31.64,31.64,0,0,0,4.631,2.822,38.176,38.176,0,0,0,17.968,3.6Zm-17.678-2.378a.134.134,0,1,1,.179-.06A.134.134,0,0,1,631.931,172.774Z" transform="translate(-563.318 -144.923)" fill="#f55f44"/>
    <path id="Path_2541" data-name="Path 2541" d="M695.831,248.732h0a1.337,1.337,0,0,0,.6,1.793h0a1.337,1.337,0,0,0,1.793-.6h0a1.337,1.337,0,0,0-.6-1.793h0A1.337,1.337,0,0,0,695.831,248.732Zm1.5,0a.223.223,0,1,1,.3-.1A.223.223,0,0,1,697.327,248.729Z" transform="translate(-629.251 -219.8)" opacity="0.1" fill="url(#linear-gradient)"/>
    <path id="Path_2542" data-name="Path 2542" d="M696.818,249.658h0a1.2,1.2,0,0,0,.541,1.614h0a1.2,1.2,0,0,0,1.614-.541h0a1.2,1.2,0,0,0-.541-1.614h0A1.2,1.2,0,0,0,696.818,249.658Zm1.346,0a.2.2,0,1,1,.269-.09A.2.2,0,0,1,698.163,249.656Z" transform="translate(-630.117 -220.667)" fill="#4d8af0"/>
    <path id="Path_2543" data-name="Path 2543" d="M707.62,245.442a.791.791,0,0,1,.561-1.121l.014.065a.725.725,0,0,0-.512,1.034Z" transform="translate(-639.516 -216.622)" fill="#4d8af0"/>
    <path id="Path_2544" data-name="Path 2544" d="M513.488,207.363h0" transform="translate(-444.816 -179.631)" fill="#4d8af0"/>
    <path id="Path_2545" data-name="Path 2545" d="M660.338,180.879C639.028,182.367,634,168.658,634,168.658Z" transform="translate(-575.813 -151.078)" fill="#ffd180"/>
    <path id="Path_2546" data-name="Path 2546" d="M397.062,615.539H394.27v23.607s18.023,5.838,35.538,0V615.539Z" transform="translate(-368.141 -538.194)" fill="#3f3d56"/>
    <ellipse id="Ellipse_41" data-name="Ellipse 41" cx="17.515" cy="2.665" rx="17.515" ry="2.665" transform="translate(26.129 74.806)" fill="#3f3d56"/>
    <ellipse id="Ellipse_42" data-name="Ellipse 42" cx="17.515" cy="2.665" rx="17.515" ry="2.665" transform="translate(26.129 74.806)" opacity="0.1"/>
    <path id="Path_2547" data-name="Path 2547" d="M519.177,192.828c-4.418,16.333-19.553,26.449-19.553,26.449s-7.971-16.366-3.552-32.7,19.553-26.449,19.553-26.449S523.6,176.494,519.177,192.828Z" transform="translate(-455.172 -143.689)" fill="#3f3d56"/>
    <path id="Path_2548" data-name="Path 2548" d="M368.275,192.828c4.419,16.333,19.553,26.449,19.553,26.449s7.971-16.366,3.552-32.7-19.553-26.449-19.553-26.449S363.856,176.494,368.275,192.828Z" transform="translate(-344.466 -143.689)" fill="#6c63ff"/>
    <path id="Path_2549" data-name="Path 2549" d="M229.194,295.509c12.124,11.8,13.605,29.946,13.605,29.946s-18.177-.992-30.3-12.8-13.605-29.946-13.605-29.946S217.069,283.706,229.194,295.509Z" transform="translate(-198.893 -249.88)" fill="#3f3d56"/>
    <path id="Path_2550" data-name="Path 2550" d="M540.8,295.509c-12.124,11.8-13.605,29.946-13.605,29.946s18.177-.992,30.3-12.8S571.1,282.714,571.1,282.714,552.928,283.706,540.8,295.509Z" transform="translate(-483.292 -249.88)" fill="#3f3d56"/>
    <circle id="Ellipse_43" data-name="Ellipse 43" cx="5.585" cy="5.585" r="5.585" transform="translate(38.314 10.838)" fill="#6c63ff"/>
    <g id="Group_165" data-name="Group 165" transform="translate(82.142 85.269)" opacity="0.5">
      <circle id="Ellipse_44" data-name="Ellipse 44" cx="12.571" cy="12.571" r="12.571" fill="url(#linear-gradient-2)"/>
    </g>
    <circle id="Ellipse_45" data-name="Ellipse 45" cx="11.769" cy="11.769" r="11.769" transform="translate(82.945 86.071)" fill="#f55f44"/>
    <g id="Group_166" data-name="Group 166" transform="translate(47.757 58.804)" opacity="0.5">
      <path id="Path_2551" data-name="Path 2551" d="M568.8,523.973c-1.777.157-3.731-.726-4.115-2.487a5.476,5.476,0,0,1,.468-2.974c.372-1.054.693-1.965.229-2.714a2.85,2.85,0,0,0-.948-.829c-.479-.3-.993-.573-1.49-.839a16.335,16.335,0,0,1-2.536-1.566,4.893,4.893,0,0,1-2.1-4.422,6.8,6.8,0,0,1,1.963-3.314c.886-1,1.724-1.953,1.7-3.114-.026-1.579-1.641-2.713-3.065-3.714l-.222-.156c-1.738-1.226-3.407-3.353-2.392-5.314a4.712,4.712,0,0,1,1.517-1.549,5.615,5.615,0,0,0,1.046-.915c1.045-1.294.512-3.211.234-3.975-.211-.581-.487-1.16-.754-1.721a14.484,14.484,0,0,1-1.039-2.607l-.039-.152c-.571-2.223-.57-2.306.033-4.439l.075-.266.9.254-.075.267a5.083,5.083,0,0,0-.027,3.951l.039.152a13.574,13.574,0,0,0,.977,2.437c.276.58.562,1.181.789,1.8a4.978,4.978,0,0,1-.385,4.883,6.4,6.4,0,0,1-1.216,1.078,3.962,3.962,0,0,0-1.244,1.228c-.789,1.525.949,3.307,2.1,4.119l.221.155c1.527,1.073,3.428,2.408,3.463,4.464.026,1.524-.973,2.655-1.938,3.749a6.045,6.045,0,0,0-1.74,2.838,4.106,4.106,0,0,0,1.758,3.548,15.383,15.383,0,0,0,2.393,1.472c.51.273,1.038.556,1.542.87a3.662,3.662,0,0,1,1.249,1.131c.7,1.131.272,2.344-.142,3.518a4.743,4.743,0,0,0-.436,2.463c.3,1.369,2.094,1.992,3.518,1.7a10.372,10.372,0,0,0,3.278-1.561c.351-.219.715-.446,1.081-.656,2-1.147,3.807-1.427,5.233-.811a6.919,6.919,0,0,1,1.268.774,6.976,6.976,0,0,0,.973.62,3.364,3.364,0,0,0,4.313-1.5c.069-.143.13-.3.2-.459a2.973,2.973,0,0,1,.981-1.467,3,3,0,0,1,1.764-.374l5.234.044-.008.936-5.234-.044a1.5,1.5,0,0,0-1.868,1.255c-.068.169-.139.344-.221.514a4.3,4.3,0,0,1-5.567,1.934,7.79,7.79,0,0,1-1.107-.7,6.118,6.118,0,0,0-1.1-.676c-1.446-.625-3.189.07-4.4.763-.351.2-.707.424-1.051.639a11.222,11.222,0,0,1-3.583,1.684A4.386,4.386,0,0,1,568.8,523.973Z" transform="translate(-555.987 -476.905)" fill="url(#linear-gradient-3)"/>
    </g>
    <path id="Path_2552" data-name="Path 2552" d="M570.525,520.809c-1.777.157-3.731-.726-4.115-2.487a5.476,5.476,0,0,1,.468-2.974c.372-1.054.693-1.965.229-2.714a2.85,2.85,0,0,0-.948-.829c-.479-.3-.993-.573-1.489-.839a16.336,16.336,0,0,1-2.536-1.566,4.892,4.892,0,0,1-2.1-4.422A6.8,6.8,0,0,1,562,501.663c.886-1,1.724-1.953,1.7-3.114-.026-1.579-1.641-2.713-3.065-3.714l-.222-.156c-1.738-1.226-3.407-3.353-2.392-5.314a4.712,4.712,0,0,1,1.517-1.549,5.613,5.613,0,0,0,1.046-.915c1.045-1.294.512-3.211.234-3.975-.211-.581-.487-1.16-.754-1.721a14.477,14.477,0,0,1-1.039-2.607l-.039-.152c-.571-2.223-.57-2.306.033-4.439l.075-.266.9.254-.076.267a5.084,5.084,0,0,0-.027,3.951l.039.152a13.569,13.569,0,0,0,.977,2.437c.276.58.562,1.181.789,1.8a4.978,4.978,0,0,1-.385,4.883,6.4,6.4,0,0,1-1.216,1.078,3.962,3.962,0,0,0-1.244,1.228c-.789,1.525.949,3.307,2.1,4.119l.221.155c1.527,1.073,3.428,2.408,3.463,4.464.026,1.524-.973,2.655-1.938,3.749a6.044,6.044,0,0,0-1.74,2.838,4.106,4.106,0,0,0,1.758,3.548,15.377,15.377,0,0,0,2.393,1.472c.51.273,1.038.556,1.542.87a3.661,3.661,0,0,1,1.249,1.131c.7,1.131.272,2.344-.142,3.518a4.742,4.742,0,0,0-.436,2.463c.3,1.369,2.094,1.992,3.518,1.7a10.371,10.371,0,0,0,3.278-1.561c.351-.219.715-.446,1.081-.656,2-1.147,3.807-1.427,5.233-.811a6.916,6.916,0,0,1,1.268.774,6.986,6.986,0,0,0,.973.62,3.364,3.364,0,0,0,4.313-1.5c.069-.143.13-.3.2-.459a2.368,2.368,0,0,1,2.745-1.841l5.234.044-.008.936-5.234-.044a1.5,1.5,0,0,0-1.868,1.255c-.068.169-.139.344-.22.514a4.3,4.3,0,0,1-5.568,1.934,7.784,7.784,0,0,1-1.107-.7,6.12,6.12,0,0,0-1.1-.676c-1.446-.625-3.189.07-4.4.763-.351.2-.707.424-1.051.639a11.22,11.22,0,0,1-3.583,1.684A4.4,4.4,0,0,1,570.525,520.809Z" transform="translate(-509.728 -415.36)" fill="#f55f44"/>
    <path id="Path_2553" data-name="Path 2553" d="M916.675,706.708s6.561.562,7.542,10.142" transform="translate(-820.681 -617.171)" fill="none" stroke="#000" stroke-miterlimit="10" stroke-width="1" opacity="0.2"/>
    <path id="Path_2554" data-name="Path 2554" d="M836.13,714.5s-3.1-7.781,7.032-13.107" transform="translate(-750.52 -612.567)" fill="none" stroke="#000" stroke-miterlimit="10" stroke-width="1" opacity="0.2"/>
    <path id="Path_2555" data-name="Path 2555" d="M855.7,741.976s-1.431-4.036,1.7-6.594" transform="translate(-767.575 -642.009)" fill="none" stroke="#000" stroke-miterlimit="10" stroke-width="1" opacity="0.2"/>
    <path id="Path_2556" data-name="Path 2556" d="M902.4,732.565s2.719,1.908,1.858,7.354" transform="translate(-808.311 -639.57)" fill="none" stroke="#000" stroke-miterlimit="10" stroke-width="1" opacity="0.2"/>
    <path id="Path_2557" data-name="Path 2557" d="M939.98,692.1s4.475,2.021,6.188,9.254" transform="translate(-840.87 -604.517)" fill="none" stroke="#000" stroke-miterlimit="10" stroke-width="1" opacity="0.2"/>
    <path id="Path_2558" data-name="Path 2558" d="M891.17,693.9s2.594-1.035,4.455.278" transform="translate(-798.587 -605.743)" fill="none" stroke="#000" stroke-miterlimit="10" stroke-width="1" opacity="0.2"/>
    <path id="Path_2559" data-name="Path 2559" d="M877.119,803.534s2.512,2.6,11.457-1.012" transform="translate(-786.416 -700.171)" fill="none" stroke="#000" stroke-miterlimit="10" stroke-width="1" opacity="0.2"/>
    <path id="Path_2560" data-name="Path 2560" d="M833.132,704.649a10.3,10.3,0,0,0-3.337,7.813" transform="translate(-745.42 -615.387)" fill="none" stroke="#000" stroke-miterlimit="10" stroke-width="1" opacity="0.2"/>
    <path id="Path_2561" data-name="Path 2561" d="M851.184,798.256a2.633,2.633,0,0,0,1.07,2.993" transform="translate(-763.842 -696.476)" fill="none" stroke="#000" stroke-miterlimit="10" stroke-width="1" opacity="0.2"/>
    <path id="Path_2562" data-name="Path 2562" d="M952.3,810.871s-.917,3.3-2.817,3.068" transform="translate(-849.106 -707.403)" fill="none" stroke="#000" stroke-miterlimit="10" stroke-width="1" opacity="0.2"/>
    <path id="Path_2563" data-name="Path 2563" d="M928.618,745.307a3.707,3.707,0,0,1,.706,3.428" transform="translate(-831.027 -650.607)" fill="none" stroke="#000" stroke-miterlimit="10" stroke-width="1" opacity="0.2"/>
    <path id="Path_2564" data-name="Path 2564" d="M875.585,750.7s-1.011,2.237-.192,3.91" transform="translate(-784.643 -655.282)" fill="none" stroke="#000" stroke-miterlimit="10" stroke-width="1" opacity="0.2"/>
    <path id="Path_2565" data-name="Path 2565" d="M889.858,749.735s1.156,2.449.341,3.863" transform="translate(-797.45 -654.443)" fill="none" stroke="#000" stroke-miterlimit="10" stroke-width="1" opacity="0.2"/>
  </g>
</svg>
