<svg id="Component_41_1" data-name="Component 41 – 1" xmlns="http://www.w3.org/2000/svg" width="413.394" height="221.611" viewBox="0 0 413.394 221.611">
  <path id="Path_2566" data-name="Path 2566" d="M826.727,660.691c-8.175-6.953-13.141-17.937-11.839-28.63s9.368-20.523,19.831-22.794,22.39,4.015,25.568,14.3c1.749-19.834,3.764-40.5,14.241-57.388,9.486-15.294,25.917-26.237,43.723-28.194s36.555,5.436,47.66,19.583,13.825,34.712,6.047,50.953c-5.73,11.964-16.286,20.868-27.346,28.112A175.571,175.571,0,0,1,823.9,663.213Z" transform="translate(-563 -445.097)" fill="#f2f2f2"/>
  <path id="Path_2567" data-name="Path 2567" d="M1014.742,545.8a438.8,438.8,0,0,0-63.285,33.82c-29.707,19.283-53.746,40.9-71.28,64.1-1.284,1.693,3.824,2.429,5.093.756,28.688-37.709,74.486-70.946,133.206-96.67,2.637-1.155-1.12-3.156-3.735-2.01Z" transform="translate(-612.234 -429.097)" fill="#fff"/>
  <path id="Path_2568" data-name="Path 2568" d="M320.949,588.5c8.519-6.533,13.693-16.852,12.336-26.9s-9.762-19.281-20.664-21.415-23.33,3.772-26.641,13.437c-1.822-18.633-3.922-38.048-14.839-53.916-9.884-14.368-27-24.649-45.558-26.488s-38.089,5.107-49.661,18.4-14.4,32.612-6.3,47.87c5.97,11.24,16.969,19.605,28.494,26.411,36.767,21.712,82.376,30.767,125.774,24.971" transform="translate(-165 -370.97)" fill="#f2f2f2"/>
  <path id="Path_2569" data-name="Path 2569" d="M215.53,483.977A314.656,314.656,0,0,1,263,519.648a271.235,271.235,0,0,1,37.438,41.927,238.655,238.655,0,0,1,16.031,25.687c.963,1.785-2.868,2.563-3.82.8a242.948,242.948,0,0,0-30.9-44.234,287.251,287.251,0,0,0-41.436-38.735A324.828,324.828,0,0,0,212.728,486.1c-1.978-1.219.84-3.329,2.8-2.12Z" transform="translate(-188.085 -373.038)" fill="#fff"/>
  <path id="Path_2570" data-name="Path 2570" d="M543.518,410.191H424.5V251.256c0-33.815,21.137-61.325,47.118-61.325H496.4c25.981,0,47.118,27.51,47.118,61.325Z" transform="translate(-255.5 -189.905)" fill="#f2f2f2"/>
  <path id="Path_2571" data-name="Path 2571" d="M534.611,409.03H424.5v-158.1a65.035,65.035,0,0,1,10.514-35.859c.253-.382.505-.759.765-1.132a58.124,58.124,0,0,1,11.718-12.6c.251-.2.5-.4.76-.6a53.273,53.273,0,0,1,11.991-6.948c.252-.106.508-.212.765-.313a50.447,50.447,0,0,1,11.853-3.1c.251-.038.508-.068.765-.1a50.337,50.337,0,0,1,11.851,0c.257.03.514.059.767.1a50.438,50.438,0,0,1,11.849,3.1c.256.1.513.208.765.314a53.122,53.122,0,0,1,11.852,6.846c.256.195.512.394.764.593a57.52,57.52,0,0,1,7,6.57,59.5,59.5,0,0,1,4.848,6.143c.259.372.512.749.764,1.13a65.036,65.036,0,0,1,10.515,35.86Z" transform="translate(-289.111 -189.935)" fill="#ccc"/>
  <ellipse id="Ellipse_46" data-name="Ellipse 46" cx="6.5" cy="6" rx="6.5" ry="6" transform="translate(239 137.333)" fill="#ffc7ad"/>
  <path id="Path_2572" data-name="Path 2572" d="M580.969,473.337h-3.024l-1.439-12.842h4.464Z" transform="translate(-308 -259.167)" fill="#ffb8b8"/>
  <path id="Path_2573" data-name="Path 2573" d="M565.963,504.28h11.543v7.443H558.7a7.357,7.357,0,0,1,7.268-7.443Z" transform="translate(-302 -291.167)" fill="#2f2e41"/>
  <path id="Path_2574" data-name="Path 2574" d="M643.532,475.59h-4.083l-1.943-15.095h6.027Z" transform="translate(-343 -261.167)" fill="#ffb8b8"/>
  <path id="Path_2575" data-name="Path 2575" d="M626.963,504.28h11.542v7.44H619.7A7.355,7.355,0,0,1,626.963,504.28Z" transform="translate(-337 -291.167)" fill="#2f2e41"/>
  <path id="Path_2576" data-name="Path 2576" d="M696.986,434.975a2.333,2.333,0,0,1-.578-2.546,3.654,3.654,0,0,1,2.384-1.949l16.69-32.59,8.212,3.175-19.056,31.144c.759,1.457-.14,3.085-2.092,3.791a5.467,5.467,0,0,1-5.56-1.025Z" transform="translate(-451 -293.097)" fill="#ffb8b8"/>
  <path id="Path_2577" data-name="Path 2577" d="M803.938,445.617a2.818,2.818,0,0,1-1.79-1.79,2.076,2.076,0,0,1,.8-2.115l-4.416-29.255,7.983.257,1.835,28.776a2.079,2.079,0,0,1,.4,3.443,4.777,4.777,0,0,1-4.81.684Z" transform="translate(-500 -296.097)" fill="#ffb8b8"/>
  <ellipse id="Ellipse_47" data-name="Ellipse 47" cx="16.061" cy="17.561" rx="16.061" ry="17.561" transform="translate(260.545 52.395)" fill="#ffb8b8"/>
  <path id="Path_2578" data-name="Path 2578" d="M773.359,438.97H740.133l.04-.224c.06-.335,5.922-33.657,1.6-44.558a4.394,4.394,0,0,1,2.723-5.678h0c6.18-2.525,18.042-5.635,28.054,1.911a10.317,10.317,0,0,1,4.245,9.11Z" transform="translate(-475 -301.097)" fill="#ffc7ad"/>
  <path id="Path_2579" data-name="Path 2579" d="M736.865,416.431l-15.847-2.808,7.428-15.376c.919-3.108,4.548-4.977,8.106-4.175s5.7,3.972,4.78,7.08Z" transform="translate(-466 -300.097)" fill="#ffc7ad"/>
  <path id="Path_2580" data-name="Path 2580" d="M795.816,425.048l-.919-20.425c-.7-3.84,1.57-7.469,5.056-8.063s6.892,2.072,7.593,5.94L811,421.585Z" transform="translate(-502 -306.097)" fill="#ffc7ad"/>
  <path id="Path_2581" data-name="Path 2581" d="M767.261,517.049c4.906,19.447,5.441,44.172,4.117,71.143l-6.588-.857-11.941-51.428-6.588,52.286-7.411-.429c-2.214-28.3-4.37-52.592-.823-68.571Z" transform="translate(-471 -383.097)" fill="#2f2e41"/>
  <path id="Path_2582" data-name="Path 2582" d="M771.079,350.48c-2.354,3.052-6.725,1.414-7.032-2.756a6.127,6.127,0,0,1,.005-.973c.158-1.847,1.035-3.524.825-5.474a3.255,3.255,0,0,0-.432-1.344c-1.876-3.057-6.279,1.367-8.049-1.4-1.085-1.7.19-4.369-.642-6.266-1.1-2.5-4.356-1.269-6.4-2.64-2.272-1.525-2.136-5.769-.641-8.35a10.316,10.316,0,0,1,8.18-5.069,18.594,18.594,0,0,1,9.243,2.2c3.35,1.589,6.672,3.785,8.733,7.371,2.507,4.361,2.748,10.223,1.494,15.322C775.6,344.2,773,347.987,771.079,350.48Z" transform="translate(-482 -271.097)" fill="#2f2e41"/>
  <path id="Path_2583" data-name="Path 2583" d="M645.62,709.574H266.107c-.338,0-.612-.533-.612-1.191s.274-1.191.612-1.191H645.62c.338,0,.612.533.612,1.191s-.274,1.191-.612,1.191Z" transform="translate(-239.092 -488.097)" fill="#3f3d56"/>
  <path id="Path_2584" data-name="Path 2584" d="M561.76,448.311h-61.2a3.132,3.132,0,0,1-3.06-3.195V300.625a3.133,3.133,0,0,1,3.06-3.195h61.2a3.132,3.132,0,0,1,3.06,3.195v144.49A3.133,3.133,0,0,1,561.76,448.311Z" transform="translate(-340.915 -252.355)" fill="#fff"/>
  <rect id="Rectangle_1475" data-name="Rectangle 1475" width="73" height="2" transform="translate(153.5 92.223)" fill="#ccc"/>
  <rect id="Rectangle_1476" data-name="Rectangle 1476" width="78" height="2" transform="translate(149 142.333)" fill="#ccc"/>
  <rect id="Rectangle_1477" data-name="Rectangle 1477" width="2" height="164" transform="translate(175.5 40.333)" fill="#ccc"/>
  <rect id="Rectangle_1478" data-name="Rectangle 1478" width="2" height="167" transform="translate(200.5 40.333)" fill="#ccc"/>
</svg>
